<?xml version="1.0" standalone="no"?>
<!DOCTYPE svg PUBLIC "-//W3C//DTD SVG 20010904//EN"
 "http://www.w3.org/TR/2001/REC-SVG-20010904/DTD/svg10.dtd">
<svg version="1.0" xmlns="http://www.w3.org/2000/svg"
 width="1152.000000pt" height="896.000000pt" viewBox="0 0 1152.000000 896.000000"
 preserveAspectRatio="xMidYMid meet">

<g transform="translate(0.000000,896.000000) scale(0.100000,-0.100000)"
fill="#000000" stroke="none">
<path d="M5550 8013 c-88 -7 -277 -35 -400 -59 -545 -107 -1097 -364 -1533
-713 -530 -425 -934 -998 -1146 -1627 -124 -367 -173 -672 -173 -1084 0 -1029
515 -2059 1356 -2715 758 -592 1733 -860 2646 -729 628 90 1209 344 1715 748
126 101 415 390 516 516 329 409 547 846 679 1355 79 303 105 522 104 875 -1
605 -106 1039 -379 1567 -268 520 -666 963 -1155 1288 -483 319 -1038 517
-1619 575 -94 9 -504 11 -611 3z m715 -391 c498 -77 977 -263 1365 -530 566
-390 960 -924 1181 -1600 89 -274 128 -509 136 -824 15 -574 -97 -1055 -366
-1574 -140 -269 -318 -511 -536 -729 -344 -343 -691 -571 -1128 -739 -551
-213 -1213 -253 -1812 -109 -582 140 -1072 407 -1488 812 -410 398 -676 838
-832 1375 -90 307 -126 548 -126 841 0 305 32 526 115 815 99 342 208 581 391
855 352 528 821 919 1400 1167 306 132 591 210 910 249 203 25 598 20 790 -9z"/>
<path d="M5782 7404 c-249 -42 -491 -179 -696 -395 -115 -121 -194 -237 -281
-414 -89 -181 -192 -505 -295 -930 -63 -260 -194 -913 -265 -1320 -14 -82 -53
-285 -86 -450 -102 -508 -130 -608 -187 -669 -37 -39 -64 -48 -162 -55 -84 -6
-85 -6 -88 -33 l-3 -28 93 0 c126 0 219 21 284 64 72 48 105 119 139 296 24
133 105 608 105 623 0 4 87 7 193 7 l192 0 27 -167 c37 -223 87 -435 148 -620
28 -84 50 -154 50 -156 0 -3 -21 0 -47 5 -38 8 -132 48 -225 96 -5 2 -8 -3 -8
-12 0 -27 107 -132 168 -164 38 -21 86 -36 135 -43 71 -11 77 -13 100 -48 45
-68 185 -207 263 -261 94 -65 157 -90 248 -97 l69 -6 -64 64 c-73 72 -135 155
-202 274 -68 120 -68 118 0 144 84 32 211 121 284 198 389 413 455 1164 179
2028 -99 308 -268 694 -375 860 l-20 30 41 -32 c63 -49 163 -160 220 -243 90
-130 248 -471 347 -745 72 -200 148 -498 181 -700 46 -289 53 -609 18 -805
-48 -266 -120 -436 -230 -548 -78 -79 -147 -116 -285 -155 -98 -28 -108 -33
-87 -48 21 -14 122 -4 220 21 198 51 366 180 498 383 182 281 250 726 177
1153 -23 130 -90 398 -129 511 -91 268 -252 610 -377 803 -191 295 -392 474
-600 534 -47 14 -249 39 -256 32 -2 -1 19 -25 47 -54 51 -53 104 -154 175
-332 265 -671 343 -1236 256 -1856 -50 -357 -132 -597 -260 -765 -49 -64 -137
-146 -147 -136 -13 12 -78 218 -113 358 -70 276 -120 594 -157 1009 -22 236
-33 1753 -14 1885 17 124 57 262 102 357 49 104 60 112 243 157 438 110 820
107 1231 -9 322 -92 568 -214 843 -420 497 -372 829 -920 935 -1545 44 -262
47 -602 7 -846 -58 -354 -200 -744 -369 -1017 -140 -226 -355 -471 -572 -653
l-105 -88 -16 97 c-16 99 -35 170 -49 185 -4 5 -28 -43 -52 -105 -25 -63 -62
-141 -84 -174 -83 -126 -260 -272 -431 -358 l-73 -36 0 -58 c0 -31 -9 -96 -19
-144 -17 -83 -17 -88 -1 -88 33 0 276 83 398 136 320 138 642 363 902 630 186
191 320 370 450 599 189 334 299 658 361 1065 30 193 33 587 6 780 -80 574
-292 1055 -653 1481 -237 280 -573 536 -929 709 -429 207 -975 312 -1323 254z
m-1093 -2327 c3 -309 5 -607 5 -662 l1 -100 -154 -3 c-138 -2 -153 -1 -147 14
3 9 24 102 46 207 99 478 160 769 179 852 12 50 28 122 37 160 15 73 21 95 26
95 2 0 5 -253 7 -563z"/>
<path d="M5205 7353 c-82 -11 -269 -59 -373 -94 -333 -115 -633 -287 -923
-530 -418 -351 -742 -849 -895 -1373 -85 -292 -109 -475 -109 -811 1 -233 4
-288 23 -400 49 -282 114 -511 211 -740 210 -494 598 -954 1046 -1239 237
-151 557 -281 840 -342 118 -25 150 -28 335 -28 162 -1 223 3 290 17 202 43
346 109 453 207 32 30 81 61 115 75 138 56 257 141 388 277 163 170 272 355
358 609 l45 134 73 25 c108 38 157 64 229 124 76 62 122 122 173 224 54 107
64 169 72 422 6 209 5 231 -15 315 -12 50 -42 132 -67 183 -56 116 -122 184
-231 237 l-77 38 69 35 c137 68 234 203 281 388 22 90 24 114 24 353 0 297 -5
325 -80 476 -106 214 -254 326 -489 370 -91 16 -169 18 -364 8 -122 -6 -128
-7 -125 -27 3 -19 11 -21 111 -26 120 -6 125 -8 149 -80 17 -48 24 -2422 8
-2619 -19 -231 -95 -573 -172 -766 -136 -346 -311 -512 -660 -626 -130 -42
-241 -59 -394 -59 -495 0 -998 185 -1398 514 -267 219 -463 465 -620 774 -121
240 -198 473 -241 727 -49 289 -51 543 -4 835 99 626 429 1182 943 1589 147
116 380 261 421 261 11 0 15 -11 15 -42 0 -72 12 -178 21 -178 4 0 20 37 34
83 58 175 140 292 341 487 79 76 140 126 182 148 86 46 82 58 -13 45z m1954
-1250 c47 -36 99 -150 117 -257 12 -69 14 -161 12 -444 -3 -339 -5 -360 -26
-424 -33 -97 -120 -201 -177 -210 -20 -3 -20 3 -23 667 -1 369 0 680 3 692 5
20 8 21 33 12 15 -6 42 -22 61 -36z m-30 -1518 c60 -30 115 -92 136 -154 9
-25 20 -95 25 -156 13 -148 12 -604 0 -685 -18 -110 -100 -259 -179 -325 -28
-24 -83 -56 -88 -51 -2 2 4 32 13 67 15 56 18 143 21 697 3 397 8 632 14 632
5 0 32 -11 58 -25z"/>
</g>
</svg>
